<svg xmlns="http://www.w3.org/2000/svg" xmlns:xlink="http://www.w3.org/1999/xlink" width="396" zoomAndPan="magnify" viewBox="0 0 297 265.499997" height="354" preserveAspectRatio="xMidYMid meet" version="1.0"><defs><g/><clipPath id="a39bdb738f"><path d="M 0.277344 0 L 296.71875 0 L 296.71875 265 L 0.277344 265 Z M 0.277344 0 " clip-rule="nonzero"/></clipPath><clipPath id="786f274cfd"><path d="M 118.765625 82.03125 L 171.914062 82.03125 L 171.914062 163.628906 L 118.765625 163.628906 Z M 118.765625 82.03125 " clip-rule="nonzero"/></clipPath><clipPath id="c57e1caa28"><path d="M 118.765625 126.589844 L 171.914062 126.589844 L 171.914062 163.269531 L 118.765625 163.269531 Z M 118.765625 126.589844 " clip-rule="nonzero"/></clipPath></defs><g clip-path="url(#a39bdb738f)"><path fill="#ffffff" d="M 0.277344 0 L 296.722656 0 L 296.722656 265 L 0.277344 265 Z M 0.277344 0 " fill-opacity="1" fill-rule="nonzero"/></g><g clip-path="url(#786f274cfd)"><path fill="#ffce01" d="M 128.761719 82.046875 L 159.742188 82.046875 L 143.695312 114.722656 L 171.914062 114.722656 L 129.863281 163.648438 L 140.929688 130.699219 L 118.800781 130.699219 Z M 128.761719 82.046875 " fill-opacity="1" fill-rule="nonzero"/></g><g fill="#254b65" fill-opacity="1"><g transform="translate(82.311449, 153.09301)"><g><path d="M 15.171875 0 L 2.34375 0 L 2.34375 -58.65625 L 13.234375 -58.65625 L 13.234375 -17.09375 L 20.953125 -29.328125 L 27.40625 -39.46875 L 39.546875 -58.65625 L 52.453125 -58.65625 L 33.765625 -29.328125 L 52.453125 0 L 39.546875 0 L 27.40625 -19.1875 Z M 15.171875 0 "/></g></g></g><g fill="#254b65" fill-opacity="1"><g transform="translate(137.11059, 153.09301)"><g/></g></g><g fill="#254b65" fill-opacity="1"><g transform="translate(159.783514, 153.09301)"><g><path d="M 15.171875 0 L 2.34375 0 L 2.34375 -58.65625 L 13.234375 -58.65625 L 13.234375 -17.09375 L 20.953125 -29.328125 L 27.40625 -39.46875 L 39.546875 -58.65625 L 52.453125 -58.65625 L 33.765625 -29.328125 L 52.453125 0 L 39.546875 0 L 27.40625 -19.1875 Z M 15.171875 0 "/></g></g></g><g fill="#254b65" fill-opacity="1"><g transform="translate(214.582655, 153.09301)"><g/></g></g><g clip-path="url(#c57e1caa28)"><path fill="#ffce01" d="M 128.761719 82.046875 L 159.742188 82.046875 L 143.695312 114.722656 L 171.914062 114.722656 L 129.863281 163.648438 L 140.929688 130.699219 L 118.800781 130.699219 Z M 128.761719 82.046875 " fill-opacity="1" fill-rule="nonzero"/></g></svg>