<svg xmlns="http://www.w3.org/2000/svg" xmlns:xlink="http://www.w3.org/1999/xlink" width="777" zoomAndPan="magnify" viewBox="0 0 582.75 227.249992" height="303" preserveAspectRatio="xMidYMid meet" version="1.0"><defs><g/><clipPath id="399d43a522"><path d="M 0.921875 23 L 441.070312 23 L 441.070312 112.640625 L 0.921875 112.640625 Z M 0.921875 23 " clip-rule="nonzero"/></clipPath><clipPath id="0cac0ad505"><rect x="0" width="442" y="0" height="90"/></clipPath><clipPath id="0a96b7e292"><path d="M 135 8 L 190 8 L 190 91 L 135 91 Z M 135 8 " clip-rule="nonzero"/></clipPath><clipPath id="d58c125305"><path d="M 127.554688 34.777344 L 168.246094 0.699219 L 220.566406 63.167969 L 179.875 97.246094 Z M 127.554688 34.777344 " clip-rule="nonzero"/></clipPath><clipPath id="006fe4f712"><path d="M 127.554688 34.777344 L 168.246094 0.699219 L 220.566406 63.167969 L 179.875 97.246094 Z M 127.554688 34.777344 " clip-rule="nonzero"/></clipPath><clipPath id="1ea1a7a938"><rect x="0" width="442" y="0" height="113"/></clipPath></defs><g transform="matrix(1, 0, 0, 1, 70, 45)"><g clip-path="url(#1ea1a7a938)"><g clip-path="url(#399d43a522)"><g transform="matrix(1, 0, 0, 1, -0.000000000000014211, 23)"><g clip-path="url(#0cac0ad505)"><g fill="#ffce01" fill-opacity="1"><g transform="translate(1.103679, 63.141162)"><g><path d="M 11.34375 -17.015625 L 11.34375 0 L 2.015625 0 L 2.015625 -50.25 L 11.34375 -50.25 L 11.34375 -33.234375 L 30.796875 -50.25 L 44.859375 -50.25 L 16.15625 -25.125 L 44.859375 0 L 30.796875 0 Z M 11.34375 -17.015625 "/></g></g></g><g fill="#ffce01" fill-opacity="1"><g transform="translate(47.969435, 63.141162)"><g><path d="M 23.46875 0 C 20.5 0 17.722656 -0.546875 15.140625 -1.640625 C 12.554688 -2.742188 10.269531 -4.289062 8.28125 -6.28125 C 6.300781 -8.269531 4.757812 -10.554688 3.65625 -13.140625 C 2.5625 -15.722656 2.015625 -18.5 2.015625 -21.46875 L 2.015625 -50.25 L 11.34375 -50.25 L 11.34375 -21.46875 C 11.34375 -19.21875 11.878906 -17.171875 12.953125 -15.328125 C 14.035156 -13.484375 15.492188 -12.019531 17.328125 -10.9375 C 19.171875 -9.863281 21.21875 -9.328125 23.46875 -9.328125 C 25.675781 -9.328125 27.695312 -9.863281 29.53125 -10.9375 C 31.375 -12.019531 32.847656 -13.484375 33.953125 -15.328125 C 35.054688 -17.171875 35.609375 -19.21875 35.609375 -21.46875 L 35.609375 -50.25 L 44.859375 -50.25 L 44.859375 -21.46875 C 44.859375 -18.5 44.304688 -15.722656 43.203125 -13.140625 C 42.109375 -10.554688 40.578125 -8.269531 38.609375 -6.28125 C 36.648438 -4.289062 34.378906 -2.742188 31.796875 -1.640625 C 29.210938 -0.546875 26.4375 0 23.46875 0 Z M 23.46875 0 "/></g></g></g><g fill="#ffce01" fill-opacity="1"><g transform="translate(94.83519, 63.141162)"><g><path d="M 2.015625 0 L 2.015625 -50.25 L 25.34375 -50.25 C 28.070312 -50.25 30.609375 -49.742188 32.953125 -48.734375 C 35.296875 -47.734375 37.363281 -46.332031 39.15625 -44.53125 C 40.945312 -42.738281 42.359375 -40.65625 43.390625 -38.28125 C 44.421875 -35.914062 44.9375 -33.394531 44.9375 -30.71875 C 44.9375 -27.507812 44.226562 -24.550781 42.8125 -21.84375 C 41.40625 -19.144531 39.503906 -16.910156 37.109375 -15.140625 C 37.640625 -13.472656 38.609375 -12.085938 40.015625 -10.984375 C 41.429688 -9.878906 43.070312 -9.328125 44.9375 -9.328125 L 44.9375 0 C 42.394531 0 40.035156 -0.488281 37.859375 -1.46875 C 35.679688 -2.445312 33.789062 -3.796875 32.1875 -5.515625 C 30.59375 -7.242188 29.382812 -9.234375 28.5625 -11.484375 C 27.894531 -11.335938 27.300781 -11.242188 26.78125 -11.203125 C 26.34375 -11.203125 25.863281 -11.203125 25.34375 -11.203125 L 11.34375 -11.203125 L 11.34375 0 Z M 11.34375 -40.921875 L 11.34375 -20.453125 L 25.34375 -20.453125 C 27.351562 -20.453125 29.191406 -21.003906 30.859375 -22.109375 C 32.296875 -23.015625 33.445312 -24.222656 34.3125 -25.734375 C 35.175781 -27.242188 35.609375 -28.90625 35.609375 -30.71875 C 35.609375 -32.582031 35.148438 -34.289062 34.234375 -35.84375 C 33.328125 -37.40625 32.09375 -38.640625 30.53125 -39.546875 C 28.976562 -40.460938 27.25 -40.921875 25.34375 -40.921875 Z M 11.34375 -40.921875 "/></g></g></g><g fill="#ffce01" fill-opacity="1"><g transform="translate(141.778031, 63.141162)"><g/></g></g><g fill="#ffce01" fill-opacity="1"><g transform="translate(141.778031, 63.141162)"><g/></g></g><g fill="#ffce01" fill-opacity="1"><g transform="translate(166.753957, 63.141162)"><g/></g></g><g fill="#ffce01" fill-opacity="1"><g transform="translate(191.735461, 63.141162)"><g/></g></g><g fill="#ffce01" fill-opacity="1"><g transform="translate(191.735461, 63.141162)"><g><path d="M 11.265625 0 L 2.015625 0 L 2.015625 -50.25 L 44.859375 -50.25 L 44.859375 -40.921875 L 11.265625 -40.921875 L 11.265625 -29.796875 L 44.859375 -29.796875 L 44.859375 -20.453125 L 11.265625 -20.453125 L 11.265625 -9.328125 L 44.859375 -9.328125 L 44.859375 0 Z M 11.265625 0 "/></g></g></g><g fill="#ffce01" fill-opacity="1"><g transform="translate(238.601216, 63.141162)"><g><path d="M 2.015625 -50.25 L 13 -50.25 L 23.46875 -33.8125 L 28.921875 -25.125 L 35.609375 -14.640625 L 35.609375 -50.25 L 44.9375 -50.25 L 44.9375 0 L 33.875 0 L 23.46875 -16.4375 L 17.9375 -25.125 L 11.34375 -35.609375 L 11.34375 0 L 2.015625 0 Z M 2.015625 -50.25 "/></g></g></g><g fill="#ffce01" fill-opacity="1"><g transform="translate(285.466972, 63.141162)"><g><path d="M 63.59375 -50.25 L 63.59375 -40.921875 L 28.0625 -40.921875 L 28.0625 0 L 18.8125 0 L 18.8125 -40.921875 L 2.015625 -40.921875 L 2.015625 -50.25 Z M 63.59375 -27.84375 L 41.203125 -27.84375 L 41.203125 -23.25 L 63.59375 -23.25 L 63.59375 -13.921875 L 41.203125 -13.921875 L 41.203125 -9.328125 L 63.59375 -9.328125 L 63.59375 0 L 31.9375 0 L 31.9375 -37.1875 L 63.59375 -37.1875 Z M 63.59375 -27.84375 "/></g></g></g><g fill="#ffce01" fill-opacity="1"><g transform="translate(351.06467, 63.141162)"><g><path d="M 11.34375 -17.015625 L 11.34375 0 L 2.015625 0 L 2.015625 -50.25 L 11.34375 -50.25 L 11.34375 -33.234375 L 30.796875 -50.25 L 44.859375 -50.25 L 16.15625 -25.125 L 44.859375 0 L 30.796875 0 Z M 11.34375 -17.015625 "/></g></g></g><g fill="#ffce01" fill-opacity="1"><g transform="translate(386.446407, 63.141162)"><g><path d="M 27.140625 0 C 23.691406 0 20.445312 -0.644531 17.40625 -1.9375 C 14.363281 -3.226562 11.679688 -5.035156 9.359375 -7.359375 C 7.046875 -9.679688 5.242188 -12.359375 3.953125 -15.390625 C 2.660156 -18.429688 2.015625 -21.675781 2.015625 -25.125 C 2.015625 -28.613281 2.660156 -31.863281 3.953125 -34.875 C 5.242188 -37.894531 7.046875 -40.566406 9.359375 -42.890625 C 11.679688 -45.210938 14.363281 -47.019531 17.40625 -48.3125 C 20.445312 -49.601562 23.691406 -50.25 27.140625 -50.25 C 30.628906 -50.25 33.878906 -49.601562 36.890625 -48.3125 C 39.910156 -47.019531 42.578125 -45.210938 44.890625 -42.890625 C 47.210938 -40.566406 49.019531 -37.894531 50.3125 -34.875 C 51.601562 -31.863281 52.25 -28.613281 52.25 -25.125 C 52.25 -21.675781 51.601562 -18.429688 50.3125 -15.390625 C 49.019531 -12.359375 47.210938 -9.679688 44.890625 -7.359375 C 42.578125 -5.035156 39.910156 -3.226562 36.890625 -1.9375 C 33.878906 -0.644531 30.628906 0 27.140625 0 Z M 27.140625 -40.921875 C 24.210938 -40.921875 21.550781 -40.210938 19.15625 -38.796875 C 16.769531 -37.390625 14.867188 -35.488281 13.453125 -33.09375 C 12.046875 -30.695312 11.34375 -28.039062 11.34375 -25.125 C 11.34375 -22.207031 12.046875 -19.550781 13.453125 -17.15625 C 14.867188 -14.757812 16.769531 -12.851562 19.15625 -11.4375 C 21.550781 -10.03125 24.210938 -9.328125 27.140625 -9.328125 C 30.054688 -9.328125 32.707031 -10.03125 35.09375 -11.4375 C 37.488281 -12.851562 39.390625 -14.757812 40.796875 -17.15625 C 42.210938 -19.550781 42.921875 -22.207031 42.921875 -25.125 C 42.921875 -28.039062 42.210938 -30.695312 40.796875 -33.09375 C 39.390625 -35.488281 37.488281 -37.390625 35.09375 -38.796875 C 32.707031 -40.210938 30.054688 -40.921875 27.140625 -40.921875 Z M 27.140625 -40.921875 "/></g></g></g><g fill="#ffce01" fill-opacity="1"><g transform="translate(440.71103, 63.141162)"><g/></g></g></g></g></g><g clip-path="url(#0a96b7e292)"><g clip-path="url(#d58c125305)"><g clip-path="url(#006fe4f712)"><path fill="#1b263b" d="M 135.242188 28.359375 L 159.039062 8.429688 L 167.75 43.867188 L 189.425781 25.714844 L 188.621094 90.375 L 175.910156 57.929688 L 158.910156 72.164062 Z M 135.242188 28.359375 " fill-opacity="1" fill-rule="nonzero"/></g></g></g></g></g></svg>