<svg xmlns="http://www.w3.org/2000/svg" xmlns:xlink="http://www.w3.org/1999/xlink" width="549" zoomAndPan="magnify" viewBox="0 0 411.75 281.25" height="375" preserveAspectRatio="xMidYMid meet" version="1.0"><defs><g/><clipPath id="9bce50f6fa"><path d="M 0.421875 0 L 411.078125 0 L 411.078125 280.503906 L 0.421875 280.503906 Z M 0.421875 0 " clip-rule="nonzero"/></clipPath></defs><g fill="#254b65" fill-opacity="1"><g transform="translate(105.193563, 169.124642)"><g><path d="M 15.15625 0 L 2.34375 0 L 2.34375 -58.609375 L 13.234375 -58.609375 L 13.234375 -17.078125 L 20.9375 -29.296875 L 27.375 -39.4375 L 39.515625 -58.609375 L 52.40625 -58.609375 L 33.734375 -29.296875 L 52.40625 0 L 39.515625 0 L 27.375 -19.171875 Z M 15.15625 0 "/></g></g></g><g fill="#254b65" fill-opacity="1"><g transform="translate(148.223807, 169.124642)"><g><path d="M 31.640625 0 C 27.628906 0 23.847656 -0.75 20.296875 -2.25 C 16.753906 -3.757812 13.628906 -5.867188 10.921875 -8.578125 C 8.210938 -11.285156 6.101562 -14.410156 4.59375 -17.953125 C 3.09375 -21.503906 2.34375 -25.285156 2.34375 -29.296875 C 2.34375 -33.367188 3.09375 -37.164062 4.59375 -40.6875 C 6.101562 -44.207031 8.210938 -47.316406 10.921875 -50.015625 C 13.628906 -52.722656 16.753906 -54.832031 20.296875 -56.34375 C 23.847656 -57.851562 27.628906 -58.609375 31.640625 -58.609375 C 35.710938 -58.609375 39.507812 -57.851562 43.03125 -56.34375 C 46.550781 -54.832031 49.660156 -52.722656 52.359375 -50.015625 C 55.066406 -47.316406 57.175781 -44.207031 58.6875 -40.6875 C 60.195312 -37.164062 60.953125 -33.367188 60.953125 -29.296875 C 60.953125 -25.285156 60.195312 -21.503906 58.6875 -17.953125 C 57.175781 -14.410156 55.066406 -11.285156 52.359375 -8.578125 C 49.660156 -5.867188 46.550781 -3.757812 43.03125 -2.25 C 39.507812 -0.75 35.710938 0 31.640625 0 Z M 31.640625 -47.71875 C 28.234375 -47.71875 25.132812 -46.894531 22.34375 -45.25 C 19.5625 -43.601562 17.347656 -41.382812 15.703125 -38.59375 C 14.054688 -35.800781 13.234375 -32.703125 13.234375 -29.296875 C 13.234375 -25.890625 14.054688 -22.789062 15.703125 -20 C 17.347656 -17.21875 19.5625 -15.003906 22.34375 -13.359375 C 25.132812 -11.710938 28.234375 -10.890625 31.640625 -10.890625 C 35.046875 -10.890625 38.144531 -11.710938 40.9375 -13.359375 C 43.726562 -15.003906 45.945312 -17.21875 47.59375 -20 C 49.238281 -22.789062 50.0625 -25.890625 50.0625 -29.296875 C 50.0625 -32.703125 49.238281 -35.800781 47.59375 -38.59375 C 45.945312 -41.382812 43.726562 -43.601562 40.9375 -45.25 C 38.144531 -46.894531 35.046875 -47.71875 31.640625 -47.71875 Z M 31.640625 -47.71875 "/></g></g></g><g fill="#254b65" fill-opacity="1"><g transform="translate(210.677443, 169.124642)"><g><path d="M 31.640625 0 C 27.628906 0 23.847656 -0.75 20.296875 -2.25 C 16.753906 -3.757812 13.628906 -5.867188 10.921875 -8.578125 C 8.210938 -11.285156 6.101562 -14.410156 4.59375 -17.953125 C 3.09375 -21.503906 2.34375 -25.285156 2.34375 -29.296875 C 2.34375 -33.367188 3.09375 -37.164062 4.59375 -40.6875 C 6.101562 -44.207031 8.210938 -47.316406 10.921875 -50.015625 C 13.628906 -52.722656 16.753906 -54.832031 20.296875 -56.34375 C 23.847656 -57.851562 27.628906 -58.609375 31.640625 -58.609375 C 35.710938 -58.609375 39.507812 -57.851562 43.03125 -56.34375 C 46.550781 -54.832031 49.660156 -52.722656 52.359375 -50.015625 C 55.066406 -47.316406 57.175781 -44.207031 58.6875 -40.6875 C 60.195312 -37.164062 60.953125 -33.367188 60.953125 -29.296875 C 60.953125 -25.285156 60.195312 -21.503906 58.6875 -17.953125 C 57.175781 -14.410156 55.066406 -11.285156 52.359375 -8.578125 C 49.660156 -5.867188 46.550781 -3.757812 43.03125 -2.25 C 39.507812 -0.75 35.710938 0 31.640625 0 Z M 31.640625 -47.71875 C 28.234375 -47.71875 25.132812 -46.894531 22.34375 -45.25 C 19.5625 -43.601562 17.347656 -41.382812 15.703125 -38.59375 C 14.054688 -35.800781 13.234375 -32.703125 13.234375 -29.296875 C 13.234375 -25.890625 14.054688 -22.789062 15.703125 -20 C 17.347656 -17.21875 19.5625 -15.003906 22.34375 -13.359375 C 25.132812 -11.710938 28.234375 -10.890625 31.640625 -10.890625 C 35.046875 -10.890625 38.144531 -11.710938 40.9375 -13.359375 C 43.726562 -15.003906 45.945312 -17.21875 47.59375 -20 C 49.238281 -22.789062 50.0625 -25.890625 50.0625 -29.296875 C 50.0625 -32.703125 49.238281 -35.800781 47.59375 -38.59375 C 45.945312 -41.382812 43.726562 -43.601562 40.9375 -45.25 C 38.144531 -46.894531 35.046875 -47.71875 31.640625 -47.71875 Z M 31.640625 -47.71875 "/></g></g></g><g fill="#254b65" fill-opacity="1"><g transform="translate(273.973944, 169.124642)"><g/></g></g><g fill="#254b65" fill-opacity="1"><g transform="translate(324.178874, 111.078884)"><g><path d="M -15.15625 0 L -2.34375 0 L -2.34375 58.609375 L -13.234375 58.609375 L -13.234375 17.078125 L -20.9375 29.296875 L -27.375 39.4375 L -39.515625 58.609375 L -52.40625 58.609375 L -33.734375 29.296875 L -52.40625 0 L -39.515625 0 L -27.375 19.171875 Z M -15.15625 0 "/></g></g></g><g fill="#254b65" fill-opacity="1"><g transform="translate(269.422549, 111.078884)"><g/></g></g></svg>